<?xml version="1.0" encoding="UTF-8" standalone="no"?>
<!-- Generator: Adobe Illustrator 19.0.0, SVG Export Plug-In . SVG Version: 6.00 Build 0)  -->

<svg
   xmlns:dc="http://purl.org/dc/elements/1.1/"
   xmlns:cc="http://creativecommons.org/ns#"
   xmlns:rdf="http://www.w3.org/1999/02/22-rdf-syntax-ns#"
   xmlns:svg="http://www.w3.org/2000/svg"
   xmlns="http://www.w3.org/2000/svg"
   xmlns:sodipodi="http://sodipodi.sourceforge.net/DTD/sodipodi-0.dtd"
   xmlns:inkscape="http://www.inkscape.org/namespaces/inkscape"
   version="1.1"
   id="Layer_1"
   x="0px"
   y="0px"
   viewBox="0 0 39.231834 27.705761"
   xml:space="preserve"
   sodipodi:docname="logo_orange.svg"
   width="39.231834"
   height="27.705761"
   inkscape:version="0.92.4 (unknown)"><metadata
   id="metadata4089"><rdf:RDF><cc:Work
       rdf:about=""><dc:format>image/svg+xml</dc:format><dc:type
         rdf:resource="http://purl.org/dc/dcmitype/StillImage" /><dc:title></dc:title></cc:Work></rdf:RDF></metadata><defs
   id="defs4087" /><sodipodi:namedview
   pagecolor="#ffffff"
   bordercolor="#666666"
   borderopacity="1"
   objecttolerance="10"
   gridtolerance="10"
   guidetolerance="10"
   inkscape:pageopacity="0"
   inkscape:pageshadow="2"
   inkscape:window-width="1920"
   inkscape:window-height="1016"
   id="namedview4085"
   showgrid="false"
   fit-margin-top="0"
   fit-margin-left="0"
   fit-margin-right="0"
   fit-margin-bottom="0"
   inkscape:zoom="16.5"
   inkscape:cx="17.162561"
   inkscape:cy="10.829818"
   inkscape:window-x="0"
   inkscape:window-y="27"
   inkscape:window-maximized="1"
   inkscape:current-layer="Layer_1" />
<g
   id="XMLID_5_"
   transform="translate(-5.3920351,-11.236627)"
   style="fill:#f4623a;fill-opacity:1">
	<g
   id="XMLID_16_"
   style="fill:#f4623a;fill-opacity:1">
		<path
   id="XMLID_20_"
   d="m 19.2,20.5 c -3,-2.2 -7.2,-2.8 -10.6,-1 -3.8,2.1 -4.5,8.6 -0.6,11 3.1,1.9 7.2,0.9 10.3,-0.6 6.8,-3.4 10.7,-12 14.7,-18 0.7,-1 -1.5,-0.6 -1.9,-0.5 -4.7,1.9 -9.4,-3.3 -11,3.7 -0.2,1 2.7,0.5 2.9,-0.4 0.6,-2.8 2.1,-1.1 4.3,-1.1 1.7,0 3.3,-0.5 4.9,-1.1 -0.6,-0.2 -1.3,-0.3 -1.9,-0.5 -3.2,4.8 -6.2,10.9 -10.5,14.8 -2.9,2.7 -9.9,5.4 -11.3,-0.3 -1.2,-4.7 4.3,-7.5 8,-4.9 0.8,0.5 3.4,-0.6 2.7,-1.1 z"
   inkscape:connector-curvature="0"
   style="fill:#f4623a;fill-opacity:1" />
	</g>
</g>
<g
   id="XMLID_2_"
   transform="translate(-5.3920351,-11.236627)"
   style="fill:#f4623a;fill-opacity:1">
	<g
   id="XMLID_15_"
   style="fill:#f4623a;fill-opacity:1">
		<path
   id="XMLID_24_"
   d="m 30.6,29.9 c 3.1,2.3 7.8,3.2 11.2,1 C 46.2,28.1 45.3,20.6 40.2,19.1 29.1,16 21.8,31.3 16.7,38.3 c -0.7,1 2.2,0.7 2.7,0 2.9,-3.9 5.4,-8.1 8.3,-12 2.2,-2.8 6.9,-7.3 11,-5.5 6.7,2.9 1,13 -5.5,8.1 -0.7,-0.7 -3.3,0.5 -2.6,1 z"
   inkscape:connector-curvature="0"
   style="fill:#f4623a;fill-opacity:1" />
	</g>
</g>
<path
   style="opacity:0;fill:#f4623a;fill-opacity:1;stroke-width:0.06060606"
   d="M 5.2491733,20.174537 C 4.5473811,20.065401 3.8470905,19.847932 3.2226195,19.545206 2.5821626,19.234731 2.2467604,19.004872 1.7647314,18.546084 0.61865348,17.455265 0.05739179,16.018332 0.05549076,14.170113 0.05378407,12.510835 0.57502118,10.964043 1.5523794,9.7280353 2.0808952,9.0596523 2.6845542,8.5765693 3.4837728,8.1824226 4.7100489,7.5776663 5.7582158,7.3162469 7.1807425,7.2603753 c 1.3457594,-0.052857 2.3837121,0.095662 3.6832755,0.5270316 1.168041,0.3877133 2.948188,1.3689072 3.003365,1.6554157 0.07761,0.403 -1.406442,1.0567654 -2.258364,0.9948704 -0.294618,-0.0214 -0.445942,-0.07465 -0.76161,-0.268006 C 9.9894049,9.6441469 9.2432346,9.422919 8.1762934,9.377742 7.5978274,9.3532487 7.2930643,9.3700353 6.9110989,9.4474317 4.9666354,9.8414305 3.52084,11.124297 3.0471542,12.875943 2.9726378,13.151498 2.9411389,13.48844 2.942338,13.997155 c 0.00216,0.9149 0.1575126,1.569149 0.5811117,2.447229 0.5019555,1.040506 1.233338,1.667101 2.3542625,2.01696 0.3969891,0.123908 0.5773321,0.141872 1.4242424,0.141872 1.1041146,0 1.5793879,-0.07957 2.6999394,-0.452015 1.28591,-0.427408 2.516558,-1.077518 3.648714,-1.927494 0.734023,-0.551073 2.200308,-2.000193 3.029744,-2.994275 1.364509,-1.63537 3.098775,-4.1348482 4.807865,-6.9292463 0.428129,-0.7 1.1812,-1.9256182 1.673492,-2.7235959 0.49229,-0.7979777 0.886974,-1.4589684 0.877075,-1.4688681 -0.0099,-0.0099 -0.234282,0.026763 -0.498627,0.081473 -0.330727,0.068449 -0.79251,0.099774 -1.480627,0.1004389 -0.955455,9.236e-4 -1.038623,-0.00894 -1.867065,-0.2215134 C 18.510049,1.63643 18.094249,1.804897 17.679409,3.0863166 17.504798,3.6256827 17.457067,3.7108552 17.235278,3.8788269 16.655552,4.3178833 15.31366,4.5227158 14.928056,4.2310118 14.704489,4.0618863 14.71238,3.8361943 14.970138,3.0274584 c 0.687716,-2.15776475 1.785188,-3.02373404 3.695453,-2.91592849 0.35,0.0197522 1.236364,0.13215198 1.969697,0.24977729 2.245703,0.36020657 3.453353,0.35089603 4.669483,-0.036 0.666615,-0.21207483 1.392179,-0.32083848 1.863084,-0.27928047 0.385368,0.03400918 0.528039,0.11481888 0.528039,0.29908323 0,0.0665454 -0.283171,0.56093323 -0.62927,1.09863974 -0.346098,0.5377064 -1.277997,2.0412844 -2.070886,3.3412844 -3.646095,5.9780439 -5.142851,8.0584149 -7.479749,10.3962579 -2.471739,2.47274 -4.877993,3.890749 -7.9226459,4.668828 -1.5923327,0.406931 -3.0929412,0.518994 -4.3441698,0.324417 z"
   id="path6146"
   inkscape:connector-curvature="0" /><path
   style="opacity:0;fill:#f4623a;fill-opacity:1;stroke-width:0.06060606"
   d="M 5.2491733,20.174537 C 4.5473811,20.065401 3.8470905,19.847932 3.2226195,19.545206 2.5821626,19.234731 2.2467604,19.004872 1.7647314,18.546084 0.61865348,17.455265 0.05739179,16.018332 0.05549076,14.170113 0.05378407,12.510835 0.57502118,10.964043 1.5523794,9.7280353 2.0808952,9.0596523 2.6845542,8.5765693 3.4837728,8.1824226 4.7100489,7.5776663 5.7582158,7.3162469 7.1807425,7.2603753 c 1.3457594,-0.052857 2.3837121,0.095662 3.6832755,0.5270316 1.168041,0.3877133 2.948188,1.3689072 3.003365,1.6554157 0.07761,0.403 -1.406442,1.0567654 -2.258364,0.9948704 -0.294618,-0.0214 -0.445942,-0.07465 -0.76161,-0.268006 C 9.9894049,9.6441469 9.2432346,9.422919 8.1762934,9.377742 7.5978274,9.3532487 7.2930643,9.3700353 6.9110989,9.4474317 4.9666354,9.8414305 3.52084,11.124297 3.0471542,12.875943 2.9726378,13.151498 2.9411389,13.48844 2.942338,13.997155 c 0.00216,0.9149 0.1575126,1.569149 0.5811117,2.447229 0.5019555,1.040506 1.233338,1.667101 2.3542625,2.01696 0.3969891,0.123908 0.5773321,0.141872 1.4242424,0.141872 1.1041146,0 1.5793879,-0.07957 2.6999394,-0.452015 1.28591,-0.427408 2.516558,-1.077518 3.648714,-1.927494 0.734023,-0.551073 2.200308,-2.000193 3.029744,-2.994275 1.364509,-1.63537 3.098775,-4.1348482 4.807865,-6.9292463 0.428129,-0.7 1.1812,-1.9256182 1.673492,-2.7235959 0.49229,-0.7979777 0.886974,-1.4589684 0.877075,-1.4688681 -0.0099,-0.0099 -0.234282,0.026763 -0.498627,0.081473 -0.330727,0.068449 -0.79251,0.099774 -1.480627,0.1004389 -0.955455,9.236e-4 -1.038623,-0.00894 -1.867065,-0.2215134 C 18.510049,1.63643 18.094249,1.804897 17.679409,3.0863166 17.504798,3.6256827 17.457067,3.7108552 17.235278,3.8788269 16.655552,4.3178833 15.31366,4.5227158 14.928056,4.2310118 14.704489,4.0618863 14.71238,3.8361943 14.970138,3.0274584 c 0.687716,-2.15776475 1.785188,-3.02373404 3.695453,-2.91592849 0.35,0.0197522 1.236364,0.13215198 1.969697,0.24977729 2.245703,0.36020657 3.453353,0.35089603 4.669483,-0.036 0.666615,-0.21207483 1.392179,-0.32083848 1.863084,-0.27928047 0.385368,0.03400918 0.528039,0.11481888 0.528039,0.29908323 0,0.0665454 -0.283171,0.56093323 -0.62927,1.09863974 -0.346098,0.5377064 -1.277997,2.0412844 -2.070886,3.3412844 -3.646095,5.9780439 -5.142851,8.0584149 -7.479749,10.3962579 -2.471739,2.47274 -4.877993,3.890749 -7.9226459,4.668828 -1.5923327,0.406931 -3.0929412,0.518994 -4.3441698,0.324417 z"
   id="path6148"
   inkscape:connector-curvature="0" /><path
   style="opacity:0;fill:#f4623a;fill-opacity:1;stroke-width:0.06060606"
   d="M 5.2491733,20.174537 C 4.5473811,20.065401 3.8470905,19.847932 3.2226195,19.545206 2.5821626,19.234731 2.2467604,19.004872 1.7647314,18.546084 0.61865348,17.455265 0.05739179,16.018332 0.05549076,14.170113 0.05378407,12.510835 0.57502118,10.964043 1.5523794,9.7280353 2.0808952,9.0596523 2.6845542,8.5765693 3.4837728,8.1824226 4.7100489,7.5776663 5.7582158,7.3162469 7.1807425,7.2603753 c 1.3457594,-0.052857 2.3837121,0.095662 3.6832755,0.5270316 1.168041,0.3877133 2.948188,1.3689072 3.003365,1.6554157 0.07761,0.403 -1.406442,1.0567654 -2.258364,0.9948704 -0.294618,-0.0214 -0.445942,-0.07465 -0.76161,-0.268006 C 9.9894049,9.6441469 9.2432346,9.422919 8.1762934,9.377742 7.5978274,9.3532487 7.2930643,9.3700353 6.9110989,9.4474317 4.9666354,9.8414305 3.52084,11.124297 3.0471542,12.875943 2.9726378,13.151498 2.9411389,13.48844 2.942338,13.997155 c 0.00216,0.9149 0.1575126,1.569149 0.5811117,2.447229 0.5019555,1.040506 1.233338,1.667101 2.3542625,2.01696 0.3969891,0.123908 0.5773321,0.141872 1.4242424,0.141872 1.1041146,0 1.5793879,-0.07957 2.6999394,-0.452015 1.28591,-0.427408 2.516558,-1.077518 3.648714,-1.927494 0.734023,-0.551073 2.200308,-2.000193 3.029744,-2.994275 1.364509,-1.63537 3.098775,-4.1348482 4.807865,-6.9292463 0.428129,-0.7 1.1812,-1.9256182 1.673492,-2.7235959 0.49229,-0.7979777 0.886974,-1.4589684 0.877075,-1.4688681 -0.0099,-0.0099 -0.234282,0.026763 -0.498627,0.081473 -0.330727,0.068449 -0.79251,0.099774 -1.480627,0.1004389 -0.955455,9.236e-4 -1.038623,-0.00894 -1.867065,-0.2215134 C 18.510049,1.63643 18.094249,1.804897 17.679409,3.0863166 17.504798,3.6256827 17.457067,3.7108552 17.235278,3.8788269 16.655552,4.3178833 15.31366,4.5227158 14.928056,4.2310118 14.704489,4.0618863 14.71238,3.8361943 14.970138,3.0274584 c 0.687716,-2.15776475 1.785188,-3.02373404 3.695453,-2.91592849 0.35,0.0197522 1.236364,0.13215198 1.969697,0.24977729 2.245703,0.36020657 3.453353,0.35089603 4.669483,-0.036 0.666615,-0.21207483 1.392179,-0.32083848 1.863084,-0.27928047 0.385368,0.03400918 0.528039,0.11481888 0.528039,0.29908323 0,0.0665454 -0.283171,0.56093323 -0.62927,1.09863974 -0.346098,0.5377064 -1.277997,2.0412844 -2.070886,3.3412844 -3.646095,5.9780439 -5.142851,8.0584149 -7.479749,10.3962579 -2.471739,2.47274 -4.877993,3.890749 -7.9226459,4.668828 -1.5923327,0.406931 -3.0929412,0.518994 -4.3441698,0.324417 z"
   id="path6150"
   inkscape:connector-curvature="0" /></svg>