<?xml version="1.0" encoding="UTF-8" standalone="no"?>
<!-- Generator: Adobe Illustrator 19.0.0, SVG Export Plug-In . SVG Version: 6.00 Build 0)  -->

<svg
   xmlns:dc="http://purl.org/dc/elements/1.1/"
   xmlns:cc="http://creativecommons.org/ns#"
   xmlns:rdf="http://www.w3.org/1999/02/22-rdf-syntax-ns#"
   xmlns:svg="http://www.w3.org/2000/svg"
   xmlns="http://www.w3.org/2000/svg"
   xmlns:sodipodi="http://sodipodi.sourceforge.net/DTD/sodipodi-0.dtd"
   xmlns:inkscape="http://www.inkscape.org/namespaces/inkscape"
   version="1.1"
   id="Layer_1"
   x="0px"
   y="0px"
   viewBox="0 0 39.231834 36.081028"
   xml:space="preserve"
   sodipodi:docname="logo_text_under.svg"
   width="39.231834"
   height="36.081028"
   inkscape:version="0.92.4 (unknown)"><metadata
   id="metadata4089"><rdf:RDF><cc:Work
       rdf:about=""><dc:format>image/svg+xml</dc:format><dc:type
         rdf:resource="http://purl.org/dc/dcmitype/StillImage" /><dc:title></dc:title></cc:Work></rdf:RDF></metadata><defs
   id="defs4087" /><sodipodi:namedview
   pagecolor="#ffffff"
   bordercolor="#666666"
   borderopacity="1"
   objecttolerance="10"
   gridtolerance="10"
   guidetolerance="10"
   inkscape:pageopacity="0"
   inkscape:pageshadow="2"
   inkscape:window-width="1920"
   inkscape:window-height="1016"
   id="namedview4085"
   showgrid="false"
   fit-margin-top="0"
   fit-margin-left="0"
   fit-margin-right="0"
   fit-margin-bottom="0"
   inkscape:zoom="16.5"
   inkscape:cx="29.465591"
   inkscape:cy="19.750539"
   inkscape:window-x="0"
   inkscape:window-y="27"
   inkscape:window-maximized="1"
   inkscape:current-layer="Layer_1" />
<g
   id="XMLID_5_"
   transform="translate(-5.3920351,-11.236627)"
   style="fill:#000000">
	<g
   id="XMLID_16_"
   style="fill:#000000">
		<path
   id="XMLID_20_"
   d="m 19.2,20.5 c -3,-2.2 -7.2,-2.8 -10.6,-1 -3.8,2.1 -4.5,8.6 -0.6,11 3.1,1.9 7.2,0.9 10.3,-0.6 6.8,-3.4 10.7,-12 14.7,-18 0.7,-1 -1.5,-0.6 -1.9,-0.5 -4.7,1.9 -9.4,-3.3 -11,3.7 -0.2,1 2.7,0.5 2.9,-0.4 0.6,-2.8 2.1,-1.1 4.3,-1.1 1.7,0 3.3,-0.5 4.9,-1.1 -0.6,-0.2 -1.3,-0.3 -1.9,-0.5 -3.2,4.8 -6.2,10.9 -10.5,14.8 -2.9,2.7 -9.9,5.4 -11.3,-0.3 -1.2,-4.7 4.3,-7.5 8,-4.9 0.8,0.5 3.4,-0.6 2.7,-1.1 z"
   inkscape:connector-curvature="0"
   style="fill:#000000" />
	</g>
</g>

<text
   xml:space="preserve"
   style="font-style:normal;font-variant:normal;font-weight:normal;font-stretch:normal;font-size:8px;line-height:1.25;font-family:C059;-inkscape-font-specification:C059;letter-spacing:0px;word-spacing:0px;fill:#000000;fill-opacity:1;stroke:none"
   x="0.72727275"
   y="29.220913"
   id="text4356"><tspan
     sodipodi:role="line"
     id="tspan4354"
     x="0.72727275"
     y="36.116913" /></text>

<text
   xml:space="preserve"
   style="font-style:normal;font-variant:normal;font-weight:normal;font-stretch:normal;font-size:7.85547447px;line-height:1.25;font-family:serif;-inkscape-font-specification:serif;letter-spacing:0px;word-spacing:0px;fill:#000000;fill-opacity:1;stroke:none;stroke-width:0.98193431"
   x="0.0014584373"
   y="33.810974"
   id="text4360"
   transform="scale(0.98193436,1.018398)"><tspan
     sodipodi:role="line"
     id="tspan4358"
     x="0.0014584373"
     y="33.810974"
     style="font-style:normal;font-variant:normal;font-weight:normal;font-stretch:normal;font-family:C059;-inkscape-font-specification:C059;stroke-width:0.98193431">Jerry Peng</tspan></text>

<g
   inkscape:groupmode="layer"
   id="layer1"
   inkscape:label="Layer 1"><g
     id="XMLID_5_-3"
     transform="rotate(-180,22.203982,19.581687)"
     style="fill:#000000"><g
       id="XMLID_16_-6"
       style="fill:#000000"><path
         id="XMLID_20_-7"
         d="m 19.2,20.5 c -3,-2.2 -7.2,-2.8 -10.6,-1 -3.8,2.1 -4.5,8.6 -0.6,11 3.1,1.9 7.2,0.9 10.3,-0.6 6.8,-3.4 10.7,-12 14.7,-18 0.7,-1 -1.5,-0.6 -1.9,-0.5 -4.7,1.9 -9.4,-3.3 -11,3.7 -0.2,1 2.7,0.5 2.9,-0.4 0.6,-2.8 2.1,-1.1 4.3,-1.1 1.7,0 3.3,-0.5 4.9,-1.1 -0.6,-0.2 -1.3,-0.3 -1.9,-0.5 -3.2,4.8 -6.2,10.9 -10.5,14.8 -2.9,2.7 -9.9,5.4 -11.3,-0.3 -1.2,-4.7 4.3,-7.5 8,-4.9 0.8,0.5 3.4,-0.6 2.7,-1.1 z"
         inkscape:connector-curvature="0"
         style="fill:#000000" /></g></g></g></svg>